# xmcd
#
# Track frame offsets:
#	150
#	17930
#	46497
#	72476
#	98189
#	116874
#	135243
#	162710
#	193706
#
# Disc length: 2963 seconds
#
# Revision: 0
# Processed by: cddbd v1.5.1PL2 Copyright (c) Steve Scherf et al.
# Submitted via: EasyCDDAExtractor 9.0.0.1
#
DISCID=840b9109
DTITLE=Blue Oyster Cult - Sound FX San Diego 25-04-92 Disc 1
DYEAR=1992
DGENRE=Hard Rock
TTITLE0=Stairway To The Stars
TTITLE1=Dominance And Submission
TTITLE2=Before The Kiss
TTITLE3=ETI
TTITLE4=Demon's Kiss
TTITLE5=Power Underneath Despair
TTITLE6=Take Me Away
TTITLE7=Cities On Flame
TTITLE8=When The Horsemen Arrive
EXTD=
EXTT0=
EXTT1=
EXTT2=
EXTT3=
EXTT4=
EXTT5=
EXTT6=
EXTT7=
EXTT8=
PLAYORDER=
